<svg width="24" height="24" viewBox="0 0 24 24" fill="none" xmlns="http://www.w3.org/2000/svg">
<g clip-path="url(#clip0_26_681)">
<path d="M24 12.2661C24 11.2823 23.9183 10.5643 23.7415 9.81982H12.2449V14.2604H18.9931C18.8571 15.3639 18.1224 17.0258 16.4897 18.1426L16.4669 18.2912L20.1019 21.043L20.3537 21.0676C22.6666 18.9802 24 15.909 24 12.2661Z" fill="#4285F4"/>
<path d="M12.2448 23.9659C15.5509 23.9659 18.3264 22.9022 20.3537 21.0675L16.4897 18.1425C15.4557 18.8471 14.0679 19.339 12.2448 19.339C9.00676 19.339 6.25848 17.2518 5.2788 14.3667L5.1352 14.3786L1.35546 17.2371L1.30603 17.3714C3.31962 21.2801 7.45568 23.9659 12.2448 23.9659Z" fill="#34A853"/>
<path d="M5.27886 14.3664C5.02036 13.6219 4.87076 12.8241 4.87076 11.9998C4.87076 11.1755 5.02036 10.3778 5.26526 9.63328L5.25841 9.47471L1.43131 6.57031L1.30609 6.62851C0.476196 8.25055 0 10.072 0 11.9998C0 13.9276 0.476196 15.749 1.30609 17.3711L5.27886 14.3664Z" fill="#FBBC05"/>
<path d="M12.2448 4.66089C14.5441 4.66089 16.0951 5.63144 16.9795 6.44251L20.4353 3.14527C18.3129 1.21746 15.5509 0.0341797 12.2448 0.0341797C7.45568 0.0341797 3.31961 2.7198 1.30603 6.62857L5.2652 9.63333C6.25848 6.74827 9.00676 4.66089 12.2448 4.66089Z" fill="#EB4335"/>
</g>
<defs>
<clipPath id="clip0_26_681">
<rect width="24" height="24" fill="white"/>
</clipPath>
</defs>
</svg>
