<?xml version="1.0" encoding="utf-8"?>
<!-- Generator: Adobe Illustrator 28.0.0, SVG Export Plug-In . SVG Version: 6.00 Build 0)  -->
<svg version="1.1" id="Слой_1" xmlns="http://www.w3.org/2000/svg" xmlns:xlink="http://www.w3.org/1999/xlink" x="0px" y="0px"
	 viewBox="0 0 414.27 414.27" style="enable-background:new 0 0 414.27 414.27;" xml:space="preserve">
<style type="text/css">
	
		.st0{clip-path:url(#SVGID_00000001652939219115598130000000787924107219408533_);fill:url(#SVGID_00000144301634553308683410000004715062817401407142_);}
	
		.st1{clip-path:url(#SVGID_00000111887518498577504170000011503565031592607653_);fill:url(#SVGID_00000127038432623957192340000016798233727719727751_);}
</style>
<g>
	<defs>
		<path id="SVGID_1_" d="M98,136.38h32.92l30.72,118.37l33.3-118.37h27.25l33.46,118.07l30.29-118.07h30.34L274.3,296.03h-35.81
			l-30.26-105.94l-30.03,105.94h-37.94L98,136.38z M85.11,119.42c-9.9,5.72-13.3,18.39-7.58,28.3c1.6,2.77,3.83,4.69,5.46,7.52
			c6.83,11.83,2.78,26.95-9.05,33.78c-6.36,3.67-11.71,2.34-17.98,5.96c-11.1,6.41-14.9,20.6-8.5,31.7
			c13.9,24.07,32.94-2.58,44.84,18.04c5.55,9.61,1.25,20.12-8.26,24.96c-8.42,4.87-11.32,15.63-6.45,24.06
			c4.85,8.42,15.63,11.31,24.05,6.44c14.34-6.52,18.92-0.6,15.63,13.48c-1.3,5.06-0.7,10.62,2.12,15.5
			c5.72,9.91,18.39,13.31,28.3,7.58c2.77-1.6,4.69-3.83,7.52-5.46c11.83-6.84,26.95-2.78,33.79,9.05c3.67,6.36,2.34,11.7,5.96,17.98
			c6.4,11.1,20.59,14.9,31.69,8.49c24.07-13.89-2.57-32.94,18.04-44.83c9.61-5.55,20.12-1.26,24.97,8.26
			c4.86,8.42,15.63,11.32,24.06,6.45c8.42-4.86,11.31-15.63,6.44-24.05c-6.04-13.27-0.84-18.46,12.43-12.43
			c8.42,4.87,19.19,1.98,24.05-6.44c4.86-8.43,1.98-19.19-6.45-24.06c-9.51-4.84-13.81-15.35-8.26-24.96
			c11.9-20.62,30.94,6.03,44.84-18.04c6.4-11.1,2.61-25.29-8.49-31.7c-6.27-3.62-11.62-2.29-17.98-5.96
			c-11.83-6.83-15.87-21.95-9.05-33.78c1.64-2.83,3.86-4.75,5.46-7.52c5.72-9.91,2.33-22.58-7.57-28.3
			c-4.89-2.82-10.45-3.42-15.51-2.13c-14.07,3.29-20-1.28-13.47-15.63c4.86-8.42,1.98-19.19-6.44-24.05
			c-8.43-4.86-19.19-1.97-24.06,6.45c-4.84,9.51-15.36,13.8-24.97,8.26c-20.61-11.9,6.03-30.94-18.04-44.84
			c-11.1-6.4-25.29-2.6-31.69,8.49c-3.62,6.28-2.29,11.62-5.96,17.99c-6.83,11.82-21.95,15.87-33.79,9.05
			c-2.83-1.64-4.75-3.86-7.52-5.46c-9.91-5.72-22.58-2.33-28.3,7.57c-2.82,4.89-3.42,10.44-2.12,15.5
			c3.65,15.63-1.06,20.32-16.68,16.68C95.56,115.99,90,116.6,85.11,119.42z M247.68,56.75c-2.9,5.02-1.17,11.42,3.83,14.31
			c5.01,2.89,11.42,1.17,14.31-3.83c2.9-5.02,1.18-11.42-3.83-14.31C256.98,50.03,250.58,51.74,247.68,56.75z M258.52,26.12
			c3.96,2.28,9.01,0.92,11.29-3.02c2.28-3.96,0.93-9.01-3.02-11.29c-3.96-2.28-9.01-0.93-11.28,3.03
			C253.22,18.78,254.58,23.84,258.52,26.12z M300.31,35.77c-2.89,5.02-1.17,11.42,3.84,14.32c5.01,2.89,11.41,1.17,14.31-3.84
			c2.89-5.02,1.17-11.42-3.84-14.32C309.61,29.04,303.21,30.76,300.31,35.77z M330.05,69.44c-7.33,4.23-9.84,13.61-5.61,20.94
			c4.23,7.33,13.61,9.84,20.93,5.61c7.33-4.23,9.85-13.61,5.62-20.94C346.76,67.71,337.38,65.21,330.05,69.44z M334.79,43.16
			c-2.28,3.96-0.92,9.01,3.02,11.29c3.96,2.28,9.01,0.93,11.29-3.02c2.28-3.95,0.92-9.01-3.02-11.29
			C342.13,37.86,337.08,39.21,334.79,43.16z M358.48,109.3c-5.01-2.89-11.41-1.17-14.31,3.84c-2.89,5.01-1.17,11.42,3.84,14.31
			c5.01,2.9,11.42,1.18,14.31-3.83C365.21,118.6,363.49,112.19,358.48,109.3z M383.45,145.59c-7.33-4.24-16.71-1.72-20.94,5.6
			c-4.23,7.33-1.72,16.71,5.61,20.94c7.33,4.23,16.71,1.72,20.94-5.61C393.29,159.19,390.78,149.82,383.45,145.59z M389.11,120.14
			c-2.27,3.96-0.92,9.01,3.03,11.29c3.95,2.28,9,0.93,11.29-3.02c2.28-3.95,0.93-9.01-3.02-11.29
			C396.45,114.84,391.4,116.19,389.11,120.14z M401.74,181.48c-3.95-2.28-9-0.92-11.28,3.03c-2.28,3.96-0.93,9.01,3.02,11.29
			c3.95,2.28,9.01,0.93,11.28-3.02C407.05,188.83,405.7,183.77,401.74,181.48z M407.54,215.95c-5.01-2.9-11.41-1.18-14.31,3.84
			c-2.89,5.01-1.17,11.41,3.84,14.31c5.01,2.89,11.41,1.17,14.31-3.84C414.27,225.25,412.56,218.84,407.54,215.95z M399.44,255.5
			c-3.96-2.28-9.01-0.92-11.29,3.02c-2.28,3.96-0.93,9.01,3.02,11.29c3.95,2.27,9.01,0.92,11.29-3.03
			C404.74,262.83,403.39,257.78,399.44,255.5z M361.35,261.99c2.89-5.01,1.17-11.41-3.84-14.31c-5.01-2.9-11.41-1.18-14.31,3.84
			c-2.89,5.01-1.17,11.41,3.84,14.31C352.05,268.72,358.45,267,361.35,261.99z M89.41,95.99c7.33-4.23,9.84-13.61,5.6-20.94
			c-4.23-7.33-13.61-9.84-20.93-5.61c-7.33,4.23-9.85,13.61-5.61,20.94C72.71,97.71,82.08,100.22,89.41,95.99z M71.58,54.45
			c3.95,2.28,9,0.93,11.28-3.02c2.28-3.95,0.93-9.01-3.02-11.29c-3.95-2.27-9.01-0.92-11.28,3.03
			C66.27,47.12,67.62,52.17,71.58,54.45z M100.38,35.77c-2.89,5.02-1.18,11.42,3.84,14.32c5.01,2.89,11.41,1.17,14.31-3.84
			c2.89-5.02,1.17-11.42-3.84-14.32C109.67,29.04,103.27,30.76,100.38,35.77z M145.59,30.82c-4.23,7.33-1.72,16.7,5.61,20.94
			c7.33,4.23,16.7,1.72,20.94-5.62c4.24-7.33,1.73-16.7-5.61-20.93C159.2,20.98,149.82,23.48,145.59,30.82z M181.49,12.52
			c-2.28,3.96-0.93,9.01,3.02,11.29c3.96,2.28,9.01,0.92,11.29-3.03c2.28-3.96,0.93-9.01-3.02-11.29
			C188.83,7.22,183.78,8.58,181.49,12.52z M215.95,6.72c-2.9,5.02-1.17,11.42,3.83,14.31c5.01,2.9,11.42,1.18,14.31-3.83
			c2.9-5.02,1.18-11.42-3.83-14.32C225.25,0,218.84,1.71,215.95,6.72z M25.16,128.4c2.28-3.95,0.92-9.01-3.02-11.29
			c-3.95-2.28-9.01-0.92-11.29,3.02c-2.28,3.96-0.92,9.01,3.02,11.29C17.82,133.71,22.87,132.36,25.16,128.4z M51.76,151.19
			c-4.23-7.33-13.61-9.84-20.94-5.6c-7.33,4.23-9.84,13.6-5.61,20.93c4.23,7.33,13.61,9.84,20.94,5.61
			C53.49,167.9,55.99,158.53,51.76,151.19z M51.96,123.61c2.89,5.01,9.3,6.72,14.31,3.83c5.01-2.89,6.73-9.3,3.83-14.31
			c-2.89-5.01-9.3-6.72-14.31-3.84C50.78,112.19,49.06,118.6,51.96,123.61z M20.79,181.48c-3.95-2.28-9.01-0.92-11.28,3.03
			c-2.28,3.96-0.93,9.01,3.02,11.29c3.95,2.28,9.01,0.93,11.28-3.02C26.1,188.83,24.74,183.77,20.79,181.48z M21.04,219.79
			c-2.89-5.02-9.3-6.73-14.31-3.84c-5.01,2.89-6.73,9.3-3.83,14.31c2.89,5.01,9.3,6.72,14.31,3.84
			C22.21,231.2,23.93,224.79,21.04,219.79z M66.27,286.83c-5.01-2.9-11.42-1.18-14.31,3.84c-2.9,5.01-1.18,11.42,3.83,14.31
			c5.01,2.9,11.42,1.18,14.31-3.84C73,296.13,71.27,289.72,66.27,286.83z M52.93,261.99c2.9,5.01,9.3,6.73,14.31,3.84
			c5.01-2.9,6.73-9.3,3.84-14.31c-2.89-5.02-9.3-6.73-14.31-3.84C51.74,250.58,50.03,256.98,52.93,261.99z M26.12,266.79
			c2.28-3.96,0.92-9.01-3.03-11.29c-3.95-2.28-9.01-0.92-11.29,3.02c-2.28,3.96-0.92,9.01,3.02,11.29
			C18.79,272.09,23.84,270.74,26.12,266.79z M22.13,282.84c-3.95-2.28-9.01-0.93-11.29,3.02c-2.28,3.95-0.93,9.01,3.02,11.29
			c3.95,2.28,9.01,0.92,11.29-3.02C27.43,290.17,26.08,285.12,22.13,282.84z M89.41,318.28c-7.33-4.23-16.71-1.72-20.94,5.62
			c-4.24,7.33-1.72,16.7,5.61,20.93c7.33,4.23,16.7,1.72,20.93-5.61C99.26,331.88,96.74,322.51,89.41,318.28z M118.52,368.03
			c-2.9-5.02-9.3-6.73-14.31-3.84c-5.02,2.89-6.73,9.3-3.84,14.31c2.9,5.01,9.29,6.72,14.31,3.84
			C119.69,379.44,121.41,373.04,118.52,368.03z M82.86,371.11c2.28-3.96,0.93-9.01-3.02-11.29c-3.95-2.28-9.01-0.92-11.28,3.02
			c-2.28,3.96-0.93,9.01,3.03,11.29C75.52,376.41,80.57,375.06,82.86,371.11z M151.2,362.51c-7.33,4.23-9.84,13.61-5.61,20.93
			c4.23,7.34,13.61,9.85,20.93,5.61c7.34-4.23,9.85-13.61,5.61-20.93C167.9,360.79,158.53,358.27,151.2,362.51z M251.51,343.2
			c-5.01,2.9-6.73,9.31-3.83,14.31c2.89,5.01,9.3,6.72,14.31,3.84c5.01-2.9,6.73-9.3,3.83-14.32
			C262.94,342.03,256.52,340.31,251.51,343.2z M266.29,389.01c-3.47-2-7.91-0.81-9.92,2.66c-2.01,3.47-0.81,7.91,2.66,9.92
			c3.47,2.01,7.91,0.81,9.92-2.66C270.95,395.46,269.76,391.02,266.29,389.01z M230.26,411.38c5.01-2.9,6.73-9.3,3.83-14.31
			c-2.89-5.02-9.3-6.73-14.31-3.84c-5.01,2.89-6.73,9.3-3.83,14.31C218.84,412.55,225.25,414.27,230.26,411.38z M195.8,401.74
			c2.28-3.95,0.93-9.01-3.02-11.29c-3.95-2.27-9-0.92-11.28,3.03c-2.28,3.96-0.93,9.01,3.02,11.29
			C188.47,407.05,193.51,405.7,195.8,401.74z M304.15,364.19c-5.01,2.89-6.73,9.3-3.84,14.31c2.9,5.01,9.3,6.72,14.31,3.84
			c5.01-2.9,6.73-9.3,3.84-14.31C315.56,363.01,309.15,361.3,304.15,364.19z M330.05,344.83c7.33,4.23,16.7,1.72,20.94-5.61
			c4.23-7.34,1.72-16.71-5.62-20.94c-7.33-4.23-16.7-1.72-20.93,5.62C320.21,331.22,322.72,340.6,330.05,344.83z M346.09,359.82
			c-3.96-2.28-9.01-0.92-11.29,3.02c-2.28,3.96-0.92,9.01,3.02,11.29c3.96,2.28,9.01,0.93,11.29-3.03
			C351.39,367.15,350.03,362.1,346.09,359.82z M344.17,301.13c2.9,5.02,9.3,6.73,14.31,3.84c5.02-2.89,6.73-9.3,3.84-14.31
			c-2.89-5.02-9.3-6.73-14.31-3.84C343,289.72,341.28,296.13,344.17,301.13z M389.11,285.86c-2.27,3.95-0.92,9.01,3.03,11.29
			c3.95,2.28,9,0.92,11.29-3.02c2.28-3.96,0.93-9.01-3.02-11.29C396.45,280.55,391.4,281.91,389.11,285.86z"/>
	</defs>
	<clipPath id="SVGID_00000152978486463833851310000011325287450299621561_">
		<use xlink:href="#SVGID_1_"  style="overflow:visible;"/>
	</clipPath>
	
		<linearGradient id="SVGID_00000144327249515217443740000010697487380207521689_" gradientUnits="userSpaceOnUse" x1="131.6124" y1="309.0885" x2="281.9052" y2="106.1979">
		<stop  offset="0" style="stop-color:#75529D"/>
		<stop  offset="1" style="stop-color:#60C4E3"/>
	</linearGradient>
	
		<rect style="clip-path:url(#SVGID_00000152978486463833851310000011325287450299621561_);fill:url(#SVGID_00000144327249515217443740000010697487380207521689_);" width="414.27" height="414.27"/>
</g>
<g>
	<defs>
		<path id="SVGID_00000037654297908801316330000014659771748331255207_" d="M4280.43,1108.1h89.04l83.08,320.17l90.07-320.17h73.71
			l90.49,319.35l81.93-319.35h82.05l-113.52,431.82h-96.85l-81.84-286.53l-81.21,286.53h-102.61L4280.43,1108.1z M4245.58,1062.23
			c-26.78,15.48-35.97,49.74-20.49,76.55c4.34,7.5,10.35,12.68,14.78,20.35c18.46,31.98,7.51,72.89-24.48,91.36
			c-17.2,9.93-31.68,6.34-48.62,16.13c-30.02,17.34-40.3,55.71-22.98,85.74c37.6,65.11,89.09-6.97,121.28,48.79
			c15.02,25.99,3.38,54.41-22.33,67.5c-22.77,13.17-30.61,42.29-17.44,65.08c13.12,22.78,42.27,30.59,65.04,17.41
			c38.79-17.64,51.16-1.61,42.28,36.46c-3.52,13.68-1.88,28.72,5.73,41.91c15.48,26.8,49.74,35.99,76.55,20.51
			c7.5-4.34,12.68-10.35,20.34-14.78c32.01-18.49,72.9-7.51,91.38,24.47c9.93,17.2,6.34,31.66,16.12,48.62
			c17.32,30.03,55.69,40.3,85.71,22.96c65.11-37.57-6.95-89.09,48.79-121.26c25.99-15.01,54.43-3.4,67.53,22.33
			c13.15,22.77,42.27,30.61,65.06,17.43c22.77-13.14,30.58-42.26,17.43-65.06c-16.34-35.9-2.28-49.93,33.62-33.61
			c22.77,13.17,51.89,5.36,65.05-17.41c13.15-22.8,5.34-51.91-17.45-65.08c-25.71-13.1-37.34-41.52-22.34-67.5
			c32.2-55.76,83.69,16.32,121.28-48.79c17.32-30.02,7.05-68.39-22.98-85.74c-16.95-9.79-31.43-6.2-48.62-16.13
			c-31.98-18.46-42.94-59.37-24.48-91.36c4.43-7.67,10.44-12.84,14.77-20.35c15.48-26.81,6.3-61.07-20.48-76.55
			c-13.22-7.62-28.26-9.25-41.94-5.76c-38.06,8.9-54.1-3.47-36.44-42.26c13.15-22.77,5.34-51.91-17.43-65.06
			c-22.8-13.15-51.91-5.34-65.06,17.46c-13.1,25.71-41.54,37.32-67.53,22.33c-55.73-32.19,16.32-83.68-48.79-121.28
			c-30.02-17.32-68.39-7.04-85.71,22.96c-9.79,16.97-6.2,31.43-16.12,48.65c-18.48,31.98-59.38,42.94-91.38,24.47
			c-7.66-4.43-12.84-10.44-20.34-14.78c-26.81-15.48-61.08-6.29-76.55,20.49c-7.62,13.22-9.25,28.23-5.73,41.91
			c9.86,42.26-2.87,54.96-45.1,45.11C4273.83,1052.97,4258.79,1054.6,4245.58,1062.23z M4685.28,892.74
			c-7.84,13.57-3.17,30.88,10.37,38.71c13.55,7.81,30.89,3.17,38.7-10.37c7.84-13.57,3.2-30.89-10.37-38.7
			C4710.43,874.55,4693.11,879.19,4685.28,892.74z M4714.6,809.89c10.7,6.16,24.36,2.5,30.54-8.18c6.18-10.7,2.52-24.36-8.18-30.54
			c-10.7-6.18-24.36-2.52-30.52,8.18C4700.26,790.03,4703.93,803.71,4714.6,809.89z M4827.63,835.98
			c-7.83,13.57-3.17,30.89,10.38,38.72c13.54,7.81,30.86,3.17,38.7-10.38c7.83-13.57,3.17-30.89-10.38-38.72
			C4852.79,817.79,4835.47,822.43,4827.63,835.98z M4908.08,927.05c-19.84,11.45-26.62,36.8-15.17,56.64
			c11.45,19.82,36.8,26.62,56.62,15.18c19.84-11.45,26.64-36.8,15.2-56.64C4953.25,922.39,4927.89,915.6,4908.08,927.05z
			 M4920.9,855.98c-6.16,10.7-2.49,24.36,8.18,30.54c10.7,6.18,24.36,2.52,30.54-8.18c6.18-10.68,2.49-24.36-8.18-30.54
			C4940.73,841.64,4927.08,845.3,4920.9,855.98z M4984.95,1034.86c-13.54-7.81-30.86-3.17-38.7,10.38
			c-7.83,13.54-3.17,30.88,10.38,38.7c13.55,7.83,30.88,3.19,38.7-10.35C5003.15,1060.01,4998.52,1042.69,4984.95,1034.86z
			 M5052.51,1133.02c-19.84-11.47-45.2-4.66-56.64,15.15c-11.45,19.84-4.64,45.2,15.17,56.64c19.84,11.45,45.2,4.66,56.64-15.18
			C5079.12,1169.8,5072.32,1144.46,5052.51,1133.02z M5067.82,1064.18c-6.15,10.7-2.49,24.36,8.19,30.54
			c10.7,6.18,24.35,2.52,30.53-8.18c6.16-10.68,2.52-24.36-8.18-30.54C5087.65,1049.85,5074,1053.51,5067.82,1064.18z
			 M5101.97,1230.1c-10.67-6.18-24.34-2.49-30.51,8.18c-6.18,10.7-2.52,24.36,8.18,30.54c10.68,6.18,24.36,2.52,30.52-8.18
			C5116.33,1249.97,5112.67,1236.28,5101.97,1230.1z M5117.65,1323.32c-13.54-7.83-30.86-3.19-38.7,10.38
			c-7.83,13.54-3.16,30.86,10.38,38.7c13.55,7.81,30.87,3.17,38.7-10.38C5135.86,1348.48,5131.22,1331.13,5117.65,1323.32z
			 M5095.75,1430.3c-10.7-6.16-24.36-2.5-30.54,8.18c-6.18,10.7-2.52,24.36,8.18,30.54c10.68,6.15,24.36,2.49,30.54-8.18
			C5110.08,1450.13,5106.42,1436.47,5095.75,1430.3z M4992.72,1447.85c7.83-13.54,3.17-30.86-10.38-38.7
			c-13.55-7.83-30.86-3.19-38.7,10.38c-7.83,13.54-3.17,30.86,10.38,38.7C4967.56,1466.05,4984.88,1461.39,4992.72,1447.85z
			 M4257.21,998.87c19.81-11.45,26.62-36.8,15.15-56.64c-11.45-19.84-36.8-26.62-56.62-15.17c-19.84,11.45-26.64,36.8-15.17,56.64
			C4212.01,1003.51,4237.37,1010.31,4257.21,998.87z M4208.96,886.51c10.67,6.18,24.34,2.52,30.51-8.18
			c6.18-10.68,2.52-24.36-8.18-30.54c-10.67-6.15-24.36-2.49-30.52,8.18C4194.6,866.67,4198.26,880.33,4208.96,886.51z
			 M4286.86,835.98c-7.83,13.57-3.2,30.89,10.38,38.72c13.55,7.81,30.86,3.17,38.7-10.38c7.83-13.57,3.17-30.89-10.38-38.72
			C4311.99,817.79,4294.69,822.43,4286.86,835.98z M4409.15,822.59c-11.45,19.82-4.66,45.18,15.17,56.64
			c19.84,11.45,45.18,4.64,56.62-15.2c11.47-19.82,4.68-45.18-15.18-56.62C4445.95,795.98,4420.59,802.76,4409.15,822.59z
			 M4506.26,773.11c-6.18,10.7-2.52,24.36,8.16,30.54c10.7,6.18,24.36,2.49,30.54-8.18c6.17-10.7,2.52-24.36-8.18-30.54
			C4526.09,758.77,4512.44,762.43,4506.26,773.11z M4599.45,757.42c-7.84,13.57-3.17,30.88,10.37,38.69
			c13.55,7.84,30.89,3.2,38.7-10.35c7.84-13.57,3.2-30.89-10.37-38.72C4624.6,739.24,4607.28,743.87,4599.45,757.42z
			 M4083.4,1086.54c6.18-10.68,2.5-24.36-8.18-30.54c-10.7-6.16-24.36-2.5-30.53,8.18c-6.16,10.7-2.5,24.36,8.18,30.54
			C4063.57,1100.9,4077.23,1097.24,4083.4,1086.54z M4155.36,1148.17c-11.45-19.82-36.8-26.62-56.64-15.15
			c-19.81,11.45-26.62,36.79-15.18,56.62c11.45,19.84,36.81,26.62,56.65,15.18S4166.81,1168.01,4155.36,1148.17z M4155.9,1073.58
			c7.8,13.54,25.15,18.18,38.7,10.35c13.54-7.81,18.2-25.15,10.37-38.7c-7.83-13.55-25.15-18.18-38.71-10.38
			C4152.71,1042.69,4148.07,1060.01,4155.9,1073.58z M4071.59,1230.1c-10.68-6.18-24.36-2.49-30.52,8.18
			c-6.18,10.7-2.52,24.36,8.18,30.54c10.68,6.18,24.36,2.52,30.52-8.18C4085.95,1249.97,4082.29,1236.28,4071.59,1230.1z
			 M4072.26,1333.7c-7.83-13.57-25.15-18.21-38.7-10.38c-13.56,7.81-18.2,25.15-10.37,38.7c7.8,13.54,25.15,18.18,38.7,10.38
			C4075.44,1364.56,4080.08,1347.24,4072.26,1333.7z M4194.6,1515.03c-13.55-7.83-30.89-3.19-38.7,10.38
			c-7.84,13.54-3.2,30.89,10.35,38.7c13.56,7.83,30.88,3.19,38.71-10.38C4212.8,1540.18,4208.14,1522.86,4194.6,1515.03z
			 M4158.51,1447.85c7.84,13.54,25.15,18.21,38.7,10.38c13.56-7.83,18.2-25.15,10.38-38.7c-7.81-13.57-25.16-18.21-38.7-10.38
			C4155.32,1416.98,4150.68,1434.3,4158.51,1447.85z M4086.02,1460.83c6.17-10.7,2.49-24.36-8.19-30.54
			c-10.7-6.16-24.36-2.5-30.53,8.18c-6.16,10.7-2.5,24.36,8.18,30.54C4066.19,1475.17,4079.84,1471.51,4086.02,1460.83z
			 M4075.22,1504.24c-10.7-6.18-24.36-2.52-30.53,8.18c-6.18,10.68-2.52,24.36,8.18,30.54c10.7,6.18,24.36,2.5,30.53-8.18
			C4089.56,1524.07,4085.9,1510.41,4075.22,1504.24z M4257.21,1600.09c-19.84-11.45-45.2-4.64-56.64,15.2
			c-11.47,19.82-4.66,45.18,15.17,56.62c19.81,11.45,45.17,4.66,56.62-15.17C4283.83,1636.89,4277.02,1611.53,4257.21,1600.09z
			 M4335.93,1734.66c-7.84-13.57-25.15-18.21-38.7-10.38c-13.57,7.81-18.2,25.15-10.38,38.7c7.84,13.54,25.13,18.18,38.7,10.38
			C4339.1,1765.52,4343.76,1748.2,4335.93,1734.66z M4239.47,1742.98c6.18-10.7,2.52-24.36-8.18-30.54
			c-10.67-6.16-24.36-2.5-30.52,8.18c-6.17,10.7-2.52,24.36,8.19,30.54C4219.63,1757.34,4233.29,1753.68,4239.47,1742.98z
			 M4424.32,1719.74c-19.84,11.45-26.62,36.8-15.17,56.62c11.45,19.84,36.8,26.64,56.62,15.18c19.86-11.45,26.65-36.8,15.18-56.62
			C4469.5,1715.08,4444.15,1708.27,4424.32,1719.74z M4695.65,1667.5c-13.54,7.83-18.2,25.17-10.37,38.71
			c7.83,13.55,25.15,18.18,38.7,10.38c13.56-7.83,18.2-25.15,10.37-38.72C4726.54,1664.33,4709.19,1659.69,4695.65,1667.5z
			 M4735.61,1791.42c-9.4-5.41-21.41-2.19-26.84,7.2c-5.43,9.39-2.19,21.4,7.2,26.83c9.4,5.43,21.4,2.19,26.83-7.2
			C4748.22,1808.85,4745,1796.85,4735.61,1791.42z M4638.15,1851.91c13.56-7.83,18.2-25.15,10.37-38.7
			c-7.8-13.57-25.15-18.21-38.7-10.38c-13.54,7.81-18.2,25.15-10.37,38.7C4607.28,1855.08,4624.6,1859.72,4638.15,1851.91z
			 M4544.95,1825.85c6.17-10.68,2.52-24.36-8.18-30.54c-10.68-6.15-24.34-2.5-30.52,8.18c-6.18,10.7-2.52,24.36,8.16,30.54
			C4525.11,1840.21,4538.77,1836.55,4544.95,1825.85z M4838.01,1724.28c-13.55,7.81-18.2,25.15-10.38,38.7
			c7.84,13.54,25.16,18.18,38.7,10.38c13.55-7.83,18.2-25.15,10.38-38.7C4868.86,1721.09,4851.54,1716.45,4838.01,1724.28z
			 M4908.08,1671.9c19.81,11.45,45.17,4.66,56.64-15.17c11.45-19.84,4.64-45.2-15.2-56.64c-19.81-11.45-45.17-4.64-56.62,15.2
			C4881.46,1635.1,4888.24,1660.46,4908.08,1671.9z M4951.44,1712.44c-10.7-6.16-24.36-2.5-30.54,8.18
			c-6.16,10.7-2.49,24.36,8.18,30.54c10.7,6.18,24.36,2.52,30.54-8.18C4965.79,1732.28,4962.11,1718.62,4951.44,1712.44z
			 M4946.26,1553.72c7.84,13.57,25.16,18.21,38.7,10.38c13.57-7.81,18.2-25.15,10.38-38.7c-7.81-13.57-25.15-18.21-38.7-10.38
			C4943.08,1522.86,4938.43,1540.18,4946.26,1553.72z M5067.82,1512.42c-6.15,10.68-2.49,24.36,8.19,30.54
			c10.7,6.18,24.35,2.5,30.53-8.18c6.16-10.7,2.52-24.36-8.18-30.54C5087.65,1498.06,5074,1501.72,5067.82,1512.42z"/>
	</defs>
	<clipPath id="SVGID_00000145034906493546256410000014726442640633556926_">
		<use xlink:href="#SVGID_00000037654297908801316330000014659771748331255207_"  style="overflow:visible;"/>
	</clipPath>
	
		<linearGradient id="SVGID_00000116918623173481400980000011469228377688338829_" gradientUnits="userSpaceOnUse" x1="4371.3418" y1="1575.2395" x2="4777.8442" y2="1026.474">
		<stop  offset="0" style="stop-color:#75529D"/>
		<stop  offset="1" style="stop-color:#60C4E3"/>
	</linearGradient>
	
		<rect x="4015.36" y="739.24" style="clip-path:url(#SVGID_00000145034906493546256410000014726442640633556926_);fill:url(#SVGID_00000116918623173481400980000011469228377688338829_);" width="1120.5" height="1120.48"/>
</g>
</svg>
