<svg width="24" height="24" viewBox="0 0 24 24" fill="none" xmlns="http://www.w3.org/2000/svg">
<g clip-path="url(#clip0_135_2841)">
<path d="M21.2573 13.4489C20.6667 18.3272 17.1829 18.6318 16.537 18.8451C16.2627 18.9365 13.7231 19.582 10.5257 19.3687L7.06634 23.2059L7.06025 18.7842L7.03587 18.7781C2.38306 17.4562 2.5415 12.4926 2.59025 9.892C2.64509 7.29138 3.11993 5.15341 4.53931 3.72232C7.08462 1.35935 12.3407 1.71279 12.3407 1.71279C16.7746 1.73107 18.8999 3.10122 19.3935 3.55825C21.0318 4.98935 21.8662 8.42435 21.2573 13.4489ZM20.6057 2.33997C20.0212 1.792 17.6699 0.0440357 12.426 0.0196607C12.426 0.0196607 6.24415 -0.364245 3.22962 2.46794C1.55478 4.18544 0.964154 6.70075 0.897122 9.81935C0.836185 12.9375 0.756966 18.7781 6.25634 20.3615H6.26243V22.7793C6.26243 22.7793 6.22587 23.76 6.85915 23.955C7.6204 24.1987 8.06525 23.4558 8.79603 22.6514C9.19822 22.2131 9.74618 21.5672 10.1601 21.074C13.9242 21.397 16.8168 20.6536 17.1398 20.5504C17.9015 20.2945 22.1952 19.7343 22.8956 13.8937C23.6081 7.86372 22.5365 4.05747 20.6057 2.33997Z" fill="#834995"/>
<path d="M17.25 14.1796C17.25 14.1796 16.5436 13.5768 16.2024 13.3208C15.8794 13.0771 15.3619 12.7485 15.0755 12.5839C14.558 12.2914 14.0279 12.4743 13.8085 12.7668L13.3519 13.3513C13.1204 13.6499 12.7613 13.595 12.6699 13.5768C12 13.4061 11.2875 12.9922 10.5563 12.2853C9.81942 11.5728 9.36848 10.8299 9.21051 10.0564L9.19832 10.0077C9.15567 9.69082 9.21051 9.54504 9.33848 9.32566L9.36286 9.30738C9.66754 9.02098 10.2399 8.6741 10.313 8.34504C10.5385 7.77269 9.56395 6.57269 9.42989 6.36551C9.42989 6.36551 8.72348 5.43363 8.47364 5.25082C8.20551 5.02535 7.78551 4.89738 7.35895 5.15941L7.33457 5.17769C6.11629 5.99988 5.67801 6.47519 5.79989 7.17551L5.86082 7.46191C6.47582 9.40488 7.66973 11.4753 9.44207 13.3208C11.1961 15.1419 13.0964 16.2322 14.9663 16.9874C15.4533 17.1519 15.9591 17.0118 16.4766 16.5669L16.4827 16.5608C16.8788 16.1891 17.1952 15.7935 17.4268 15.3669V15.3608C17.6639 14.8921 17.5847 14.466 17.25 14.1796Z" fill="#834995"/>
<path d="M14.3385 9.92254C14.2654 9.92254 14.2045 9.8616 14.1984 9.78848C14.174 9.28317 14.0399 8.89926 13.7962 8.64332C13.5524 8.38738 13.1934 8.24723 12.718 8.21676C12.6388 8.21066 12.584 8.14363 12.584 8.06441C12.5901 7.9852 12.651 7.92426 12.7302 7.93035C13.2782 7.96082 13.6987 8.13145 13.9912 8.44176C14.2837 8.75254 14.4477 9.19691 14.4721 9.77535C14.4782 9.85457 14.4173 9.9216 14.338 9.9277" fill="#834995"/>
<path d="M15.7209 10.3977C15.6417 10.3977 15.5808 10.3307 15.5808 10.2515C15.6051 9.28305 15.3187 8.46695 14.7403 7.82148C14.4539 7.49852 14.1009 7.24305 13.6987 7.06633C13.2966 6.88352 12.8217 6.77383 12.3042 6.73727C12.225 6.73117 12.1701 6.66414 12.1762 6.58492C12.1823 6.5057 12.2494 6.44477 12.3286 6.45086C13.4433 6.53617 14.3264 6.9318 14.9536 7.63258C15.5808 8.33289 15.8916 9.22211 15.8672 10.2637C15.8611 10.3368 15.8001 10.3977 15.7209 10.3977Z" fill="#834995"/>
<path d="M17.1405 10.9701C17.0613 10.9701 17.0004 10.9091 17.0004 10.8299C16.9943 9.97725 16.8663 9.20382 16.6165 8.53397C16.3666 7.87022 15.9954 7.28522 15.5079 6.7921C15.0209 6.30507 14.4602 5.93335 13.8574 5.68351C13.2485 5.43366 12.5721 5.30569 11.8413 5.30569C11.7621 5.30569 11.7012 5.23866 11.7012 5.15944C11.7012 5.08022 11.7621 5.01929 11.8413 5.01929C13.376 5.03147 14.6735 5.55507 15.7029 6.58444C16.2204 7.10194 16.6165 7.72351 16.8785 8.42991C17.1405 9.13022 17.2746 9.94022 17.2807 10.8294C17.2807 10.903 17.2198 10.964 17.1405 10.9701Z" fill="#834995"/>
</g>
<defs>
<clipPath id="clip0_135_2841">
<rect width="24" height="24" fill="white"/>
</clipPath>
</defs>
</svg>
