<svg width="32" height="32" viewBox="0 0 32 32" fill="none" xmlns="http://www.w3.org/2000/svg">
<g clip-path="url(#clip0_339_1163)">
<path d="M8.11436 31.8868C6.21131 31.8003 5.17752 31.4836 4.48991 31.2154C3.5788 30.8606 2.92924 30.4384 2.24543 29.7555C1.56163 29.0727 1.13841 28.4231 0.785568 27.512C0.517371 26.8244 0.200672 25.7906 0.114126 23.8875C0.019021 21.8304 0 21.2132 0 16.0014C0 10.7897 0.0209231 10.1734 0.113175 8.11436C0.199721 6.21131 0.518323 5.17942 0.784617 4.48991C1.13936 3.5788 1.56258 2.92924 2.24448 2.24448C2.92733 1.56163 3.5769 1.13746 4.48896 0.784617C5.17657 0.51642 6.21036 0.199721 8.11341 0.113175C10.1715 0.019021 10.7897 0 15.9995 0C21.2113 0 21.8276 0.0209231 23.8866 0.113175C25.7896 0.199721 26.8215 0.518323 27.511 0.784617C28.4221 1.13746 29.0717 1.56163 29.7555 2.24448C30.4393 2.92733 30.8606 3.57785 31.2154 4.48896C31.4836 5.17657 31.8003 6.21036 31.8868 8.11341C31.981 10.1724 32 10.7887 32 16.0005C32 21.2103 31.981 21.8285 31.8868 23.8875C31.8003 25.7906 31.4817 26.8244 31.2154 27.512C30.8606 28.4231 30.4384 29.0727 29.7555 29.7555C29.0727 30.4384 28.4221 30.8606 27.511 31.2154C26.8234 31.4836 25.7896 31.8003 23.8866 31.8868C21.8295 31.981 21.2113 32 15.9995 32C10.7897 32 10.1715 31.9819 8.11436 31.8868Z" fill="url(#paint0_radial_339_1163)"/>
<path d="M8.11436 31.8868C6.21131 31.8003 5.17752 31.4836 4.48991 31.2154C3.5788 30.8606 2.92924 30.4384 2.24543 29.7555C1.56163 29.0727 1.13841 28.4231 0.785568 27.512C0.517371 26.8244 0.200672 25.7906 0.114126 23.8875C0.019021 21.8304 0 21.2132 0 16.0014C0 10.7897 0.0209231 10.1734 0.113175 8.11436C0.199721 6.21131 0.518323 5.17942 0.784617 4.48991C1.13936 3.5788 1.56258 2.92924 2.24448 2.24448C2.92733 1.56163 3.5769 1.13746 4.48896 0.784617C5.17657 0.51642 6.21036 0.199721 8.11341 0.113175C10.1715 0.019021 10.7897 0 15.9995 0C21.2113 0 21.8276 0.0209231 23.8866 0.113175C25.7896 0.199721 26.8215 0.518323 27.511 0.784617C28.4221 1.13746 29.0717 1.56163 29.7555 2.24448C30.4393 2.92733 30.8606 3.57785 31.2154 4.48896C31.4836 5.17657 31.8003 6.21036 31.8868 8.11341C31.981 10.1724 32 10.7887 32 16.0005C32 21.2103 31.981 21.8285 31.8868 23.8875C31.8003 25.7906 31.4817 26.8244 31.2154 27.512C30.8606 28.4231 30.4384 29.0727 29.7555 29.7555C29.0727 30.4384 28.4221 30.8606 27.511 31.2154C26.8234 31.4836 25.7896 31.8003 23.8866 31.8868C21.8295 31.981 21.2113 32 15.9995 32C10.7897 32 10.1715 31.9819 8.11436 31.8868Z" fill="url(#paint1_radial_339_1163)"/>
<path d="M12.0716 16.0678C12.0716 13.8794 13.8452 12.1048 16.0336 12.1048C18.2221 12.1048 19.9967 13.8794 19.9967 16.0678C19.9967 18.2563 18.2221 20.0308 16.0336 20.0308C13.8452 20.0308 12.0716 18.2563 12.0716 16.0678ZM9.92923 16.0678C9.92923 19.4393 12.6622 22.1722 16.0336 22.1722C19.4051 22.1722 22.1381 19.4393 22.1381 16.0678C22.1381 12.6963 19.4051 9.96341 16.0336 9.96341C12.6622 9.96341 9.92932 12.6962 9.92932 16.0678M20.9532 9.72137C20.9531 10.0035 21.0367 10.2794 21.1933 10.514C21.35 10.7487 21.5727 10.9316 21.8334 11.0397C22.094 11.1478 22.3808 11.1761 22.6576 11.1212C22.9343 11.0663 23.1886 10.9305 23.3882 10.7311C23.5877 10.5316 23.7237 10.2775 23.7789 10.0008C23.834 9.7241 23.8059 9.43725 23.698 9.17654C23.5901 8.91582 23.4074 8.69295 23.1728 8.5361C22.9383 8.37925 22.6625 8.29547 22.3804 8.29536H22.3798C22.0016 8.29554 21.6389 8.44581 21.3715 8.71319C21.104 8.98056 20.9536 9.34317 20.9532 9.72137ZM11.2308 25.7446C10.0718 25.6918 9.44181 25.4987 9.02316 25.3356C8.46813 25.1195 8.07211 24.8622 7.65574 24.4464C7.23937 24.0306 6.98164 23.635 6.76651 23.0799C6.60331 22.6615 6.41024 22.0313 6.35756 20.8722C6.29992 19.6191 6.28841 19.2427 6.28841 16.068C6.28841 12.8933 6.30087 12.5179 6.35756 11.2638C6.41034 10.1047 6.60483 9.4758 6.76651 9.0561C6.98259 8.50107 7.23994 8.10505 7.65574 7.68868C8.07154 7.27231 8.46718 7.01458 9.02316 6.79945C9.44162 6.63625 10.0718 6.44319 11.2308 6.3905C12.4839 6.33287 12.8604 6.32136 16.0336 6.32136C19.2069 6.32136 19.5837 6.33363 20.8379 6.39069C21.9969 6.44347 22.6258 6.63796 23.0455 6.79964C23.6006 7.01477 23.9966 7.27308 24.413 7.68887C24.8293 8.10467 25.0861 8.50126 25.3022 9.05629C25.4654 9.47476 25.6585 10.1049 25.7112 11.264C25.7688 12.5181 25.7803 12.8935 25.7803 16.0682C25.7803 19.2429 25.7688 19.6183 25.7112 20.8724C25.6584 22.0315 25.4644 22.6615 25.3022 23.0801C25.0861 23.6351 24.8288 24.0312 24.413 24.4466C23.9972 24.862 23.6006 25.1197 23.0455 25.3358C22.6271 25.499 21.9969 25.6921 20.8379 25.7448C19.5848 25.8024 19.2083 25.8139 16.0336 25.8139C12.8589 25.8139 12.4836 25.8024 11.2308 25.7448M11.1324 4.25168C9.86684 4.30932 9.00205 4.50999 8.24682 4.80386C7.46515 5.10734 6.80255 5.51449 6.14091 6.17509C5.47926 6.83569 5.07316 7.49838 4.76968 8.281C4.47581 9.0367 4.27514 9.90102 4.2175 11.1666C4.15892 12.4341 4.14551 12.8394 4.14551 16.0678C4.14551 19.2963 4.15892 19.7015 4.2175 20.9691C4.27514 22.2347 4.47581 23.0989 4.76968 23.8546C5.07316 24.6363 5.47936 25.3002 6.14091 25.9606C6.80246 26.6209 7.4642 27.0274 8.24682 27.3318C9.00347 27.6257 9.86684 27.8263 11.1324 27.884C12.4006 27.9416 12.8052 27.956 16.0336 27.956C19.2621 27.956 19.6673 27.9425 20.9349 27.884C22.2005 27.8263 23.0648 27.6257 23.8205 27.3318C24.6021 27.0274 25.2647 26.6212 25.9264 25.9606C26.588 25.3 26.9933 24.6363 27.2976 23.8546C27.5915 23.0989 27.7931 22.2346 27.8498 20.9691C27.9074 19.7006 27.9208 19.2963 27.9208 16.0678C27.9208 12.8394 27.9074 12.4341 27.8498 11.1666C27.7921 9.90092 27.5915 9.03623 27.2976 8.281C26.9933 7.49933 26.587 6.83673 25.9264 6.17509C25.2658 5.51344 24.6021 5.10734 23.8214 4.80386C23.0648 4.50999 22.2004 4.30836 20.9358 4.25168C19.6681 4.19376 19.263 4.17969 16.0351 4.17969C12.8071 4.17969 12.4011 4.1931 11.1329 4.25168" fill="white"/>
</g>
<defs>
<radialGradient id="paint0_radial_339_1163" cx="0" cy="0" r="1" gradientUnits="userSpaceOnUse" gradientTransform="translate(2.07101 31.299) scale(40.6281)">
<stop offset="0.09" stop-color="#FA8F21"/>
<stop offset="0.78" stop-color="#D82D7E"/>
</radialGradient>
<radialGradient id="paint1_radial_339_1163" cx="0" cy="0" r="1" gradientUnits="userSpaceOnUse" gradientTransform="translate(22.1653 30.2715) scale(35.7531)">
<stop offset="0.64" stop-color="#8C3AAA" stop-opacity="0"/>
<stop offset="1" stop-color="#8C3AAA"/>
</radialGradient>
<clipPath id="clip0_339_1163">
<rect width="32" height="32" fill="white"/>
</clipPath>
</defs>
</svg>
