<svg width="24" height="24" viewBox="0 0 24 24" fill="none" xmlns="http://www.w3.org/2000/svg">
<g id="Viber logo" clip-path="url(#clip0_339_1152)">
<g id="Group">
<path id="Vector" d="M21.2573 13.4486C20.6667 18.3269 17.1829 18.6316 16.537 18.8449C16.2627 18.9363 13.7231 19.5818 10.5257 19.3685L7.06634 23.2057L7.06025 18.7839L7.03587 18.7779C2.38306 17.456 2.5415 12.4924 2.59025 9.89176C2.64509 7.29114 3.11993 5.15317 4.53931 3.72207C7.08462 1.3591 12.3407 1.71254 12.3407 1.71254C16.7746 1.73082 18.8999 3.10098 19.3935 3.55801C21.0318 4.9891 21.8662 8.4241 21.2573 13.4486ZM20.6057 2.33973C20.0212 1.79176 17.6699 0.0437916 12.426 0.0194166C12.426 0.0194166 6.24415 -0.36449 3.22962 2.4677C1.55478 4.1852 0.964154 6.70051 0.897122 9.8191C0.836185 12.9372 0.756966 18.7779 6.25634 20.3613H6.26243V22.7791C6.26243 22.7791 6.22587 23.7597 6.85915 23.9547C7.6204 24.1985 8.06525 23.4555 8.79603 22.6511C9.19822 22.2129 9.74618 21.5669 10.1601 21.0738C13.9242 21.3968 16.8168 20.6533 17.1398 20.5502C17.9015 20.2943 22.1952 19.7341 22.8956 13.8935C23.6081 7.86348 22.5365 4.05723 20.6057 2.33973Z" fill="#834995"/>
<path id="Vector_2" d="M17.25 14.1798C17.25 14.1798 16.5436 13.577 16.2024 13.3211C15.8794 13.0773 15.3619 12.7487 15.0755 12.5842C14.558 12.2917 14.0279 12.4745 13.8085 12.767L13.3519 13.3515C13.1204 13.6501 12.7613 13.5953 12.6699 13.577C12 13.4064 11.2875 12.9925 10.5563 12.2856C9.81942 11.5731 9.36848 10.8301 9.21051 10.0567L9.19832 10.0079C9.15567 9.69106 9.21051 9.54528 9.33848 9.32591L9.36286 9.30763C9.66754 9.02122 10.2399 8.67434 10.313 8.34528C10.5385 7.77294 9.56395 6.57294 9.42989 6.36575C9.42989 6.36575 8.72348 5.43388 8.47364 5.25106C8.20551 5.02559 7.78551 4.89763 7.35895 5.15966L7.33457 5.17794C6.11629 6.00013 5.67801 6.47544 5.79989 7.17575L5.86082 7.46216C6.47582 9.40513 7.66973 11.4756 9.44207 13.3211C11.1961 15.1422 13.0964 16.2325 14.9663 16.9876C15.4533 17.1522 15.9591 17.012 16.4766 16.5672L16.4827 16.5611C16.8788 16.1893 17.1952 15.7937 17.4268 15.3672V15.3611C17.6639 14.8923 17.5847 14.4662 17.25 14.1798Z" fill="#834995"/>
<path id="Vector_3" d="M14.3385 9.9223C14.2654 9.9223 14.2045 9.86136 14.1984 9.78823C14.174 9.28292 14.0399 8.89901 13.7962 8.64308C13.5524 8.38714 13.1934 8.24698 12.718 8.21651C12.6388 8.21042 12.584 8.14339 12.584 8.06417C12.5901 7.98495 12.651 7.92401 12.7302 7.93011C13.2782 7.96058 13.6987 8.1312 13.9912 8.44151C14.2837 8.7523 14.4477 9.19667 14.4721 9.77511C14.4782 9.85433 14.4173 9.92136 14.338 9.92745" fill="#834995"/>
<path id="Vector_4" d="M15.7209 10.3975C15.6417 10.3975 15.5808 10.3305 15.5808 10.2512C15.6051 9.2828 15.3187 8.46671 14.7403 7.82124C14.4539 7.49827 14.1009 7.2428 13.6987 7.06608C13.2966 6.88327 12.8217 6.77358 12.3042 6.73702C12.225 6.73093 12.1701 6.6639 12.1762 6.58468C12.1823 6.50546 12.2494 6.44452 12.3286 6.45062C13.4433 6.53593 14.3264 6.93155 14.9536 7.63233C15.5808 8.33265 15.8916 9.22187 15.8672 10.2634C15.8611 10.3366 15.8001 10.3975 15.7209 10.3975Z" fill="#834995"/>
<path id="Vector_5" d="M17.1405 10.9703C17.0613 10.9703 17.0004 10.9094 17.0004 10.8302C16.9943 9.9775 16.8663 9.20406 16.6165 8.53422C16.3666 7.87047 15.9954 7.28547 15.5079 6.79234C15.0209 6.30531 14.4602 5.93359 13.8574 5.68375C13.2485 5.43391 12.5721 5.30594 11.8413 5.30594C11.7621 5.30594 11.7012 5.23891 11.7012 5.15969C11.7012 5.08047 11.7621 5.01953 11.8413 5.01953C13.376 5.03172 14.6735 5.55531 15.7029 6.58469C16.2204 7.10219 16.6165 7.72375 16.8785 8.43016C17.1405 9.13047 17.2746 9.94047 17.2807 10.8297C17.2807 10.9033 17.2198 10.9642 17.1405 10.9703Z" fill="#834995"/>
</g>
</g>
<defs>
<clipPath id="clip0_339_1152">
<rect width="24" height="24" fill="white"/>
</clipPath>
</defs>
</svg>
