<svg width="32" height="32" viewBox="0 0 32 32" fill="none" xmlns="http://www.w3.org/2000/svg">
<g id="YouTube logo">
<path id="Vector" d="M31.3015 8.29816C31.1174 7.61945 30.7589 7.00074 30.2617 6.50348C29.7644 6.00623 29.1457 5.64775 28.467 5.46366C25.982 4.78516 15.98 4.78516 15.98 4.78516C15.98 4.78516 5.9775 4.80516 3.492 5.48366C2.8133 5.66775 2.19458 6.02623 1.69733 6.52348C1.20007 7.02074 0.841589 7.63945 0.6575 8.31816C0 10.8037 0 16.0002 0 16.0002C0 16.0002 0 21.1967 0.678 23.7022C0.862089 24.3809 1.22057 24.9996 1.71783 25.4968C2.21508 25.9941 2.8338 26.3526 3.5125 26.5367C5.9975 27.2152 16 27.2152 16 27.2152C16 27.2152 26.0025 27.2152 28.488 26.5372C29.1667 26.3531 29.7854 25.9946 30.2827 25.4973C30.7799 25.0001 31.1384 24.3814 31.3225 23.7027C32 21.2172 32 16.0002 32 16.0002C32 16.0002 31.98 10.8037 31.3015 8.29816Z" fill="#FF0000"/>
<path id="Vector_2" d="M12.7954 20.8063L21.0929 16.0003L12.7949 11.1943L12.7954 20.8063Z" fill="white"/>
</g>
</svg>
